<svg viewBox="0 0 240 320" xmlns="http://www.w3.org/2000/svg">
    <defs>
        <linearGradient id="dp-body" x1="0" y1="0" x2="0" y2="1">
            <stop offset="0%" stop-color="#6366F1"/>
            <stop offset="100%" stop-color="#4338CA"/>
        </linearGradient>
        <filter id="dp-shadow" x="-20%" y="-20%" width="140%" height="140%">
            <feDropShadow dx="0" dy="3" stdDeviation="3" flood-color="#1E1B4B" flood-opacity="0.18"/>
        </filter>
    </defs>

    <path d="M64 40 H152 L200 88 V240 a16 16 0 0 1 -16 16 H64 a16 16 0 0 1 -16 -16 V56 a16 16 0 0 1 16 -16 Z" fill="url(#dp-body)"/>
    <path d="M152 40 V72 a16 16 0 0 0 16 16 H200 Z" fill="#312E81"/>
    <path d="M152 40 V72 a16 16 0 0 0 16 16 H200" fill="none" stroke="#1E1B4B" stroke-opacity="0.25" stroke-width="1"/>

    <circle cx="124" cy="156" r="52" fill="#FFFFFF" filter="url(#dp-shadow)"/>

    <g transform="translate(91 123) scale(2.75)" fill="#4F46E5">
        <path fill-rule="evenodd" clip-rule="evenodd" d="M12 2.25 21 11.25V20.5a1.25 1.25 0 0 1-1.25 1.25H4.25a1.25 1.25 0 0 1-1.25-1.25V11.25L12 2.25ZM11.55 17.25V13.4H11.2A.8.8 0 0 0 12.8 13.4H12.45V17.25Z"/>
    </g>

    <text x="120" y="290" text-anchor="middle" font-family="Figtree, system-ui, -apple-system, sans-serif" font-size="34" font-weight="700" fill="#4F46E5" letter-spacing="-0.5">DigiProper</text>
    <rect x="80" y="298" width="80" height="2" rx="1" fill="#A5B4FC"/>
    <text x="120" y="315" text-anchor="middle" font-family="Figtree, system-ui, -apple-system, sans-serif" font-size="11" font-style="italic" fill="#6B7280">Property management, simplified</text>
</svg>
